<?xml version="1.0" encoding="UTF-8"?>
<!DOCTYPE svg PUBLIC "-//W3C//DTD SVG 1.1//EN" "http://www.w3.org/Graphics/SVG/1.1/DTD/svg11.dtd">
<svg xmlns="http://www.w3.org/2000/svg" version="1.1" width="353px" height="73px" style="shape-rendering:geometricPrecision; text-rendering:geometricPrecision; image-rendering:optimizeQuality; fill-rule:evenodd; clip-rule:evenodd" xmlns:xlink="http://www.w3.org/1999/xlink">
<g><path style="opacity:1" fill="#fffefd" d="M -0.5,-0.5 C 117.167,-0.5 234.833,-0.5 352.5,-0.5C 352.5,23.8333 352.5,48.1667 352.5,72.5C 234.833,72.5 117.167,72.5 -0.5,72.5C -0.5,48.1667 -0.5,23.8333 -0.5,-0.5 Z M 34.5,2.5 C 35.9778,2.23798 37.3112,2.57131 38.5,3.5C 41.5052,10.1833 45.0052,16.5166 49,22.5C 56.5335,23.695 64.0335,25.0283 71.5,26.5C 79.2088,25.1376 86.8755,23.6376 94.5,22C 97.7943,15.9116 100.961,9.74493 104,3.5C 105.494,2.25278 106.994,2.25278 108.5,3.5C 111.5,9.5 114.5,15.5 117.5,21.5C 125.387,23.5338 133.387,25.2004 141.5,26.5C 149.209,25.1376 156.875,23.6376 164.5,22C 167.794,15.9116 170.961,9.74493 174,3.5C 175.494,2.25278 176.994,2.25278 178.5,3.5C 181.5,9.5 184.5,15.5 187.5,21.5C 195.387,23.5338 203.387,25.2004 211.5,26.5C 219.209,25.1376 226.875,23.6376 234.5,22C 237.794,15.9116 240.961,9.74493 244,3.5C 245.494,2.25278 246.994,2.25278 248.5,3.5C 251.505,10.1833 255.005,16.5166 259,22.5C 266.533,23.695 274.033,25.0283 281.5,26.5C 288.43,25.0096 295.43,23.843 302.5,23C 303.416,22.6258 304.25,22.1258 305,21.5C 308,15.5 311,9.5 314,3.5C 315.494,2.25278 316.994,2.25278 318.5,3.5C 321.5,9.5 324.5,15.5 327.5,21.5C 334.998,23.5976 342.664,25.0976 350.5,26C 351.554,27.3876 351.72,28.8876 351,30.5C 345.699,34.7998 340.699,39.4664 336,44.5C 336.726,51.5206 337.892,58.5206 339.5,65.5C 339.167,67.1667 338.167,68.1667 336.5,68.5C 329.87,65.1848 323.203,61.8515 316.5,58.5C 309.404,62.5564 302.071,65.7231 294.5,68C 293.919,67.1074 293.585,66.1074 293.5,65C 295.158,57.8943 295.992,50.7276 296,43.5C 291.018,39.3519 286.184,35.0186 281.5,30.5C 275.885,34.6118 270.719,39.2785 266,44.5C 266.726,51.5206 267.892,58.5206 269.5,65.5C 269.167,67.1667 268.167,68.1667 266.5,68.5C 259.87,65.1848 253.203,61.8515 246.5,58.5C 239.404,62.5564 232.071,65.7231 224.5,68C 223.919,67.1074 223.585,66.1074 223.5,65C 225.158,57.8943 225.992,50.7276 226,43.5C 221.018,39.3519 216.184,35.0186 211.5,30.5C 205.885,34.6118 200.719,39.2785 196,44.5C 196.726,51.5206 197.892,58.5206 199.5,65.5C 199.167,67.1667 198.167,68.1667 196.5,68.5C 189.87,65.1848 183.203,61.8515 176.5,58.5C 169.404,62.5564 162.071,65.7231 154.5,68C 153.919,67.1074 153.585,66.1074 153.5,65C 155.158,57.8943 155.992,50.7276 156,43.5C 151.018,39.3519 146.184,35.0186 141.5,30.5C 135.885,34.6118 130.719,39.2785 126,44.5C 126.726,51.5206 127.892,58.5206 129.5,65.5C 129.167,67.1667 128.167,68.1667 126.5,68.5C 119.87,65.1848 113.203,61.8515 106.5,58.5C 99.404,62.5564 92.0707,65.7231 84.5,68C 83.9186,67.1074 83.5852,66.1074 83.5,65C 85.1582,57.8943 85.9916,50.7276 86,43.5C 81.0176,39.3519 76.1843,35.0186 71.5,30.5C 65.8853,34.6118 60.7187,39.2785 56,44.5C 56.7257,51.5206 57.8923,58.5206 59.5,65.5C 58.616,67.942 56.9493,68.7754 54.5,68C 48.6581,64.5785 42.6581,61.4119 36.5,58.5C 29.728,61.9694 22.8946,65.3027 16,68.5C 14.1147,68.1379 13.2814,66.9713 13.5,65C 15.1582,57.8943 15.9916,50.7276 16,43.5C 10.1667,39 5,33.8333 0.5,28C 1.16667,27.3333 1.83333,26.6667 2.5,26C 9.9313,25.0348 17.2646,23.7015 24.5,22C 27.974,15.5515 31.3074,9.05152 34.5,2.5 Z"/></g>
</svg>
